<svg width="36" height="35" viewBox="0 0 36 35" fill="none" xmlns="http://www.w3.org/2000/svg">
<path d="M10.5032 14.2333C10.5032 13.6307 10.9923 13.1416 11.5949 13.1416H23.389C23.6786 13.1416 23.9562 13.2566 24.161 13.4614C24.3657 13.6661 24.4807 13.9438 24.4807 14.2333C24.4807 14.5229 24.3657 14.8005 24.161 15.0053C23.9562 15.21 23.6786 15.325 23.389 15.325H11.5949C10.9923 15.325 10.5032 14.836 10.5032 14.2333Z" fill="#212121"/>
<path d="M11.5986 19.6709C11.3091 19.6709 11.0314 19.7859 10.8267 19.9907C10.6219 20.1954 10.5069 20.4731 10.5069 20.7626C10.5069 21.0522 10.6219 21.3298 10.8267 21.5346C11.0314 21.7393 11.3091 21.8543 11.5986 21.8543H19.8957C20.1852 21.8543 20.4629 21.7393 20.6677 21.5346C20.8724 21.3298 20.9874 21.0522 20.9874 20.7626C20.9874 20.4731 20.8724 20.1954 20.6677 19.9907C20.4629 19.7859 20.1852 19.6709 19.8957 19.6709H11.5986Z" fill="#212121"/>
<path d="M10.9751 1.30908C26.074 -4.73469 40.9721 11.2961 32.8593 25.8999C29.1736 32.5323 20.0189 37.8739 9.35847 32.8223L1.94787 34.9393C0.798504 35.2677 -0.264395 34.2092 0.058754 33.059C0.500683 31.4816 1.54873 27.7628 2.16185 25.747C-2.43386 17.5478 0.664878 5.43491 10.9742 1.30908H10.9751ZM30.951 24.8396C38.0122 12.1276 25.0793 -1.98355 11.7865 3.33619C2.63609 6.99738 -0.0268374 17.9155 4.27978 25.0475L4.53394 25.4684L4.38721 25.9374C3.92257 27.4248 3.04483 30.5087 2.47888 32.5166L9.56546 30.4921L9.94363 30.6799C19.5569 35.445 27.6924 30.7035 30.951 24.8387V24.8396Z" fill="#212121"/>
</svg>
