<svg width="40" height="40" viewBox="0 0 40 40" fill="none" xmlns="http://www.w3.org/2000/svg">
<circle cx="20" cy="20" r="19" fill="white" stroke="#5998A6" stroke-width="2"/>
<path d="M10 30L11.7606 23.0281L22.2535 12.5352L27.4648 17.7464L16.9718 28.2394L10 30ZM13.0282 23.7324L11.9718 28.0281L16.2676 26.9718L25.493 17.7464L22.2535 14.507L13.0282 23.7324Z" fill="#5998A6"/>
<path d="M15.7752 27.8168C15.3526 26.0562 13.9442 24.6478 12.1836 24.2252L12.5357 22.8872C14.7892 23.4506 16.5498 25.2112 17.1132 27.4647L15.7752 27.8168Z" fill="#5998A6"/>
<path d="M23.871 15.1318L24.8668 16.1276L15.7048 25.2966L14.709 24.3037L23.871 15.1318Z" fill="#5998A6"/>
<path d="M10.9863 29.0144L13.0286 28.5215C12.8173 27.7468 12.2539 27.1834 11.4793 26.9722L10.9863 29.0144Z" fill="#5998A6"/>
<path d="M27.8871 17.324L22.6758 12.1127L24.7885 10L25.1406 10.0704C27.6758 10.4225 29.6476 12.3944 29.9997 14.9296L30.0702 15.2817L27.8871 17.324ZM24.6476 12.1127L27.8871 15.3521L28.5209 14.7183C28.1688 13.0986 26.9011 11.831 25.2814 11.4789L24.6476 12.1127Z" fill="#5998A6"/>
</svg>
