<svg width="20" height="21" viewBox="0 0 20 21" fill="none" xmlns="http://www.w3.org/2000/svg">
<path d="M19.803 8.62475C19.9305 9.29419 20 9.99411 20 10.7245C20 16.4376 16.0981 20.5 10.2047 20.5C8.86452 20.5004 7.53735 20.242 6.29907 19.7396C5.06079 19.2372 3.93567 18.5006 2.98799 17.572C2.04031 16.6433 1.28865 15.5407 0.775958 14.3273C0.263266 13.1139 -0.00040815 11.8133 4.74216e-07 10.5C-0.00040815 9.18667 0.263266 7.88613 0.775958 6.67269C1.28865 5.45926 2.04031 4.3567 2.98799 3.42804C3.93567 2.49937 5.06079 1.76279 6.29907 1.26039C7.53735 0.757984 8.86452 0.4996 10.2047 0.5C12.9601 0.5 15.2625 1.4935 17.029 3.10666L14.1523 5.92564V5.91853C13.0814 4.91893 11.7224 4.40593 10.2047 4.40593C6.83771 4.40593 4.10097 7.19342 4.10097 10.4939C4.10097 13.7934 6.83771 16.587 10.2047 16.587C13.2597 16.587 15.3392 14.8753 15.7663 12.5246H10.2047V8.62475H19.8041H19.803Z" fill="white"/>
</svg>
