<svg width="38" height="39" viewBox="0 0 38 39" fill="none" xmlns="http://www.w3.org/2000/svg">
<path d="M10.3822 0.37207C4.66632 0.37207 0.0336914 5.42585 0.0336914 11.6613C0.0336914 22.515 11.5744 32.8858 16.9662 37.5043C16.9713 37.5088 16.9764 37.5133 16.9816 37.5178C17.0185 37.5494 17.0688 37.5945 17.1051 37.6256H17.1113C17.6579 38.0746 18.3232 38.3181 19.0074 38.3196C19.6927 38.3188 20.3592 38.0753 20.9067 37.6256H20.9098C20.9204 37.6165 20.9361 37.6044 20.9468 37.5952C20.9549 37.5883 20.9664 37.5786 20.9746 37.5717C20.985 37.5616 20.9953 37.5515 21.0055 37.5413C26.3805 32.9395 37.9812 22.5409 37.9812 11.6613C37.9812 5.42585 33.3485 0.37207 27.6327 0.37207C22.1699 0.37207 19.0074 5.54673 19.0074 5.54673C19.0074 5.54673 15.845 0.37207 10.3822 0.37207ZM15.9718 8.9965C16.7861 8.9965 17.4263 10.2262 17.4263 12.453C17.4263 14.9144 16.2096 15.896 15.0206 15.896C13.9486 15.896 12.6829 15.3079 12.6829 13.3087C12.6829 10.9232 14.1629 8.9965 15.9718 8.9965ZM22.0431 8.9965C23.8519 8.9965 25.332 10.9232 25.332 13.3087C25.332 15.3079 24.0663 15.896 22.9943 15.896C21.8052 15.896 20.5886 14.9144 20.5886 12.453C20.5886 10.2262 21.2288 8.9965 22.0431 8.9965ZM10.027 15.896C10.5551 15.896 11.1125 16.4971 11.6421 17.3009C12.0279 17.8856 12.6829 18.7907 12.6829 19.8377C12.6829 20.569 11.9429 22.7956 10.3111 22.7956C9.24861 22.7956 8.0437 21.9318 7.94251 19.6187C7.87136 18.0232 9.06411 15.896 10.027 15.896ZM27.9878 15.896C28.9508 15.896 30.1435 18.0232 30.0724 19.6187C29.9712 21.9318 28.7647 22.7956 27.7037 22.7956C26.072 22.7956 25.332 20.569 25.332 19.8377C25.332 18.7907 25.9869 17.8856 26.3727 17.3009C26.9024 16.4971 27.4597 15.896 27.9878 15.896ZM19.0043 19.3458C20.4985 19.3458 21.0818 20.4549 21.3822 21.9331C21.9688 24.8448 25.332 24.8631 25.332 27.6367C25.332 28.3629 24.7734 29.6951 23.1116 29.6951C21.7534 29.6951 21.0835 28.8327 19.0074 28.8327C16.9314 28.8327 16.2615 29.6951 14.9033 29.6951C13.2415 29.6951 12.6829 28.3629 12.6829 27.6367C12.6829 24.8631 16.046 24.8465 16.6326 21.9331C16.9315 20.4549 17.5117 19.3458 19.0043 19.3458Z" fill="#5998A6"/>
</svg>
