<svg width="265" height="56" viewBox="0 0 265 56" fill="none" xmlns="http://www.w3.org/2000/svg">
<g filter="url(#filter0_ddii)">
<path d="M74.3822 9.37219C68.6663 9.37219 64.0337 14.426 64.0337 20.6614C64.0337 31.5151 75.5744 41.8859 80.9662 46.5044C80.9713 46.5089 80.9764 46.5134 80.9816 46.5179C81.0185 46.5495 81.0688 46.5946 81.1051 46.6257H81.1113C81.6579 47.0747 82.3232 47.3182 83.0074 47.3197C83.6927 47.319 84.3592 47.0754 84.9067 46.6257H84.9098C84.9204 46.6166 84.9361 46.6045 84.9468 46.5954C84.9549 46.5884 84.9664 46.5788 84.9746 46.5718C84.985 46.5618 84.9953 46.5516 85.0055 46.5415C90.3805 41.9396 101.981 31.541 101.981 20.6614C101.981 14.426 97.3485 9.37219 91.6327 9.37219C86.1699 9.37219 83.0074 14.5469 83.0074 14.5469C83.0074 14.5469 79.845 9.37219 74.3822 9.37219ZM79.9718 17.9966C80.7861 17.9966 81.4263 19.2263 81.4263 21.4531C81.4263 23.9145 80.2096 24.8962 79.0206 24.8962C77.9486 24.8962 76.6829 24.308 76.6829 22.3088C76.6829 19.9233 78.1629 17.9966 79.9718 17.9966ZM86.0431 17.9966C87.8519 17.9966 89.332 19.9233 89.332 22.3088C89.332 24.308 88.0663 24.8962 86.9943 24.8962C85.8052 24.8962 84.5886 23.9145 84.5886 21.4531C84.5886 19.2263 85.2288 17.9966 86.0431 17.9966ZM74.027 24.8962C74.5551 24.8962 75.1125 25.4972 75.6421 26.301C76.0279 26.8857 76.6829 27.7908 76.6829 28.8378C76.6829 29.5692 75.9429 31.7957 74.3111 31.7957C73.2486 31.7957 72.0437 30.9319 71.9425 28.6188C71.8714 27.0233 73.0641 24.8962 74.027 24.8962ZM91.9878 24.8962C92.9508 24.8962 94.1435 27.0233 94.0724 28.6188C93.9712 30.9319 92.7647 31.7957 91.7037 31.7957C90.072 31.7957 89.332 29.5692 89.332 28.8378C89.332 27.7908 89.9869 26.8857 90.3727 26.301C90.9024 25.4972 91.4597 24.8962 91.9878 24.8962ZM83.0043 28.3459C84.4985 28.3459 85.0818 29.455 85.3822 30.9333C85.9688 33.8449 89.332 33.8632 89.332 36.6368C89.332 37.363 88.7734 38.6953 87.1116 38.6953C85.7534 38.6953 85.0835 37.8328 83.0074 37.8328C80.9314 37.8328 80.2615 38.6953 78.9033 38.6953C77.2415 38.6953 76.6829 37.363 76.6829 36.6368C76.6829 33.8632 80.046 33.8466 80.6326 30.9333C80.9315 29.455 81.5117 28.3459 83.0043 28.3459Z" fill="#5998A6"/>
<path d="M124.952 28.5643C124.952 29.9304 125.256 31.0815 125.863 32.0175C126.495 32.9283 127.317 33.6113 128.329 34.0667C129.367 34.5221 130.505 34.7498 131.745 34.7498C133.01 34.7498 134.097 34.5853 135.008 34.2564C135.919 33.9276 136.716 33.5228 137.399 33.0421C138.107 32.5362 138.74 32.0175 139.296 31.4863V40.0624C138.259 40.7708 137.121 41.3653 135.881 41.8459C134.667 42.3519 133.086 42.6049 131.138 42.6049C128.051 42.6049 125.357 42.023 123.055 40.8593C120.753 39.6956 118.956 38.0638 117.666 35.9641C116.401 33.8643 115.769 31.3977 115.769 28.5643C115.769 25.7309 116.401 23.2643 117.666 21.1646C118.956 19.0648 120.753 17.4331 123.055 16.2693C125.357 15.1056 128.051 14.5238 131.138 14.5238C133.086 14.5238 134.667 14.7641 135.881 15.2448C137.121 15.7254 138.259 16.3326 139.296 17.0662V25.6424C138.74 25.1111 138.107 24.5925 137.399 24.0865C136.716 23.5806 135.919 23.1758 135.008 22.8722C134.097 22.5433 133.01 22.3789 131.745 22.3789C130.505 22.3789 129.367 22.6066 128.329 23.0619C127.317 23.5173 126.495 24.213 125.863 25.1491C125.256 26.0598 124.952 27.1982 124.952 28.5643ZM154.815 31.9037C154.588 31.6001 154.297 31.3471 153.942 31.1448C153.588 30.9424 153.158 30.8412 152.652 30.8412C151.995 30.8412 151.375 31.1321 150.793 31.714C150.211 32.2705 149.92 33.1813 149.92 34.4462V41.8459H142.71V24.3901H149.92V26.7049C150.502 25.8448 151.21 25.1743 152.045 24.6937C152.905 24.1877 153.803 23.9347 154.739 23.9347C155.372 23.9347 155.979 24.0992 156.561 24.428C157.168 24.7316 157.585 25.0985 157.813 25.5285L154.815 31.9037ZM158.577 18.2426C158.577 17.1295 158.969 16.2314 159.753 15.5483C160.563 14.8653 161.537 14.5238 162.675 14.5238C163.814 14.5238 164.775 14.8653 165.559 15.5483C166.369 16.2314 166.773 17.1295 166.773 18.2426C166.773 19.3557 166.369 20.2538 165.559 20.9369C164.775 21.6199 163.814 21.9615 162.675 21.9615C161.537 21.9615 160.563 21.6199 159.753 20.9369C158.969 20.2538 158.577 19.3557 158.577 18.2426ZM159.108 24.3901H166.204V41.8459H159.108V24.3901ZM167.537 24.3901H170.763V18.3185H177.783V24.3901H181.009V30.272H177.783V41.8459H170.763V30.272H167.537V24.3901ZM180.638 24.3901H183.864V18.3185H190.884V24.3901H194.11V30.272H190.884V41.8459H183.864V30.272H180.638V24.3901ZM207.552 31.9037C207.324 31.6001 207.033 31.3471 206.679 31.1448C206.325 30.9424 205.895 30.8412 205.389 30.8412C204.731 30.8412 204.111 31.1321 203.529 31.714C202.948 32.2705 202.657 33.1813 202.657 34.4462V41.8459H195.447V24.3901H202.657V26.7049C203.239 25.8448 203.947 25.1743 204.782 24.6937C205.642 24.1877 206.54 23.9347 207.476 23.9347C208.108 23.9347 208.716 24.0992 209.298 24.428C209.905 24.7316 210.322 25.0985 210.55 25.5285L207.552 31.9037Z" fill="#5998A6"/>
<path d="M125.863 32.0175L125.73 32.1036L125.733 32.1077L125.863 32.0175ZM128.329 34.0667L128.265 34.2109L128.266 34.2115L128.329 34.0667ZM135.008 34.2565L134.954 34.1077L135.008 34.2565ZM137.399 33.0421L137.49 33.1714L137.491 33.1708L137.399 33.0421ZM139.296 31.4863H139.454V31.1168L139.187 31.3719L139.296 31.4863ZM139.296 40.0624L139.385 40.193L139.454 40.1459V40.0624H139.296ZM135.881 41.8459L135.824 41.6985L135.82 41.7L135.881 41.8459ZM123.055 40.8593L122.983 41.0004L123.055 40.8593ZM117.666 35.9641L117.531 36.0457L117.531 36.0469L117.666 35.9641ZM117.666 21.1646L117.531 21.0818L117.531 21.083L117.666 21.1646ZM135.881 15.2448L135.823 15.3918L135.824 15.3922L135.881 15.2448ZM139.296 17.0662H139.454V16.9844L139.388 16.9371L139.296 17.0662ZM139.296 25.6424L139.187 25.7567L139.454 26.0119V25.6424H139.296ZM137.399 24.0865L137.305 24.2136L137.307 24.2152L137.399 24.0865ZM135.008 22.8722L134.954 23.021L134.958 23.0222L135.008 22.8722ZM128.329 23.0619L128.266 22.9172L128.265 22.9177L128.329 23.0619ZM125.863 25.149L125.732 25.0605L125.731 25.0613L125.863 25.149ZM124.794 28.5643C124.794 29.9541 125.103 31.1367 125.73 32.1036L125.995 31.9315C125.408 31.0263 125.11 29.9068 125.11 28.5643H124.794ZM125.733 32.1077C126.382 33.0421 127.226 33.7438 128.265 34.2109L128.394 33.9225C127.409 33.4789 126.609 32.8145 125.993 31.9274L125.733 32.1077ZM128.266 34.2115C129.325 34.6765 130.485 34.9079 131.745 34.9079V34.5917C130.525 34.5917 129.408 34.3677 128.393 33.9219L128.266 34.2115ZM131.745 34.9079C133.023 34.9079 134.13 34.7418 135.062 34.4052L134.954 34.1077C134.065 34.4288 132.997 34.5917 131.745 34.5917V34.9079ZM135.062 34.4052C135.984 34.0722 136.794 33.6614 137.49 33.1714L137.308 32.9128C136.638 33.3842 135.854 33.7829 134.954 34.1077L135.062 34.4052ZM137.491 33.1708C138.204 32.661 138.843 32.1377 139.405 31.6007L139.187 31.3719C138.637 31.8974 138.01 32.4113 137.307 32.9135L137.491 33.1708ZM139.138 31.4863V40.0624H139.454V31.4863H139.138ZM139.207 39.9318C138.18 40.633 137.053 41.222 135.824 41.6985L135.938 41.9934C137.188 41.5086 138.338 40.9085 139.385 40.193L139.207 39.9318ZM135.82 41.7C134.632 42.195 133.074 42.4468 131.138 42.4468V42.763C133.097 42.763 134.701 42.5088 135.942 41.9919L135.82 41.7ZM131.138 42.4468C128.071 42.4468 125.402 41.8688 123.126 40.7182L122.983 41.0004C125.312 42.1773 128.031 42.763 131.138 42.763V42.4468ZM123.126 40.7182C120.849 39.567 119.075 37.9549 117.801 35.8813L117.531 36.0469C118.838 38.1728 120.656 39.8241 122.983 41.0004L123.126 40.7182ZM117.802 35.8825C116.554 33.811 115.927 31.3735 115.927 28.5643H115.611C115.611 31.4219 116.249 33.9177 117.531 36.0457L117.802 35.8825ZM115.927 28.5643C115.927 25.7551 116.554 23.3177 117.802 21.2462L117.531 21.083C116.249 23.211 115.611 25.7067 115.611 28.5643H115.927ZM117.801 21.2473C119.075 19.1737 120.849 17.5616 123.126 16.4104L122.983 16.1282C120.656 17.3045 118.838 18.9559 117.531 21.0818L117.801 21.2473ZM123.126 16.4104C125.402 15.2599 128.071 14.6819 131.138 14.6819V14.3656C128.031 14.3656 125.312 14.9513 122.983 16.1282L123.126 16.4104ZM131.138 14.6819C133.074 14.6819 134.634 14.9211 135.823 15.3918L135.939 15.0977C134.7 14.6071 133.097 14.3656 131.138 14.3656V14.6819ZM135.824 15.3922C137.052 15.8684 138.179 16.4695 139.205 17.1953L139.388 16.9371C138.339 16.1957 137.189 15.5825 135.938 15.0973L135.824 15.3922ZM139.138 17.0662V25.6424H139.454V17.0662H139.138ZM139.405 25.528C138.843 24.9909 138.204 24.4676 137.491 23.9579L137.307 24.2152C138.01 24.7174 138.637 25.2313 139.187 25.7567L139.405 25.528ZM137.493 23.9595C136.795 23.4424 135.983 23.0304 135.058 22.7222L134.958 23.0222C135.855 23.3212 136.637 23.7187 137.305 24.2136L137.493 23.9595ZM135.062 22.7235C134.13 22.3868 133.023 22.2208 131.745 22.2208V22.537C132.997 22.537 134.065 22.6998 134.954 23.0209L135.062 22.7235ZM131.745 22.2208C130.485 22.2208 129.325 22.4522 128.266 22.9172L128.393 23.2067C129.408 22.7609 130.525 22.537 131.745 22.537V22.2208ZM128.265 22.9177C127.225 23.3854 126.38 24.1006 125.732 25.0605L125.994 25.2376C126.61 24.3254 127.41 23.6492 128.394 23.2061L128.265 22.9177ZM125.731 25.0613C125.103 26.0038 124.794 27.1748 124.794 28.5643H125.11C125.11 27.2217 125.408 26.1157 125.994 25.2368L125.731 25.0613ZM154.815 31.9037L154.689 31.9986L154.847 32.2089L154.958 31.971L154.815 31.9037ZM153.942 31.1448L153.864 31.282L153.942 31.1448ZM150.793 31.714L150.902 31.8283L150.905 31.8258L150.793 31.714ZM149.92 41.8459V42.0041H150.078V41.8459H149.92ZM142.71 41.8459H142.552V42.0041H142.71V41.8459ZM142.71 24.3901V24.232H142.552V24.3901H142.71ZM149.92 24.3901H150.078V24.232H149.92V24.3901ZM149.92 26.7049H149.762V27.2208L150.051 26.7935L149.92 26.7049ZM152.045 24.6937L152.124 24.8307L152.125 24.83L152.045 24.6937ZM156.561 24.428L156.483 24.5659L156.49 24.5695L156.561 24.428ZM157.813 25.5285L157.956 25.5958L157.99 25.5243L157.953 25.4545L157.813 25.5285ZM154.942 31.8088C154.7 31.4867 154.392 31.2198 154.021 31.0075L153.864 31.282C154.201 31.4745 154.475 31.7135 154.689 31.9986L154.942 31.8088ZM154.021 31.0075C153.638 30.7885 153.179 30.6831 152.652 30.6831V30.9993C153.137 30.9993 153.539 31.0962 153.864 31.282L154.021 31.0075ZM152.652 30.6831C151.943 30.6831 151.285 30.9985 150.681 31.6022L150.905 31.8258C151.465 31.2657 152.046 30.9993 152.652 30.9993V30.6831ZM150.684 31.5997C150.057 32.1994 149.762 33.1622 149.762 34.4462H150.078C150.078 33.2004 150.365 32.3417 150.902 31.8282L150.684 31.5997ZM149.762 34.4462V41.8459H150.078V34.4462H149.762ZM149.92 41.6878H142.71V42.0041H149.92V41.6878ZM142.868 41.8459V24.3901H142.552V41.8459H142.868ZM142.71 24.5482H149.92V24.232H142.71V24.5482ZM149.762 24.3901V26.7049H150.078V24.3901H149.762ZM150.051 26.7935C150.62 25.9517 151.312 25.2985 152.124 24.8307L151.966 24.5567C151.109 25.0502 150.383 25.7379 149.789 26.6163L150.051 26.7935ZM152.125 24.83C152.963 24.3373 153.833 24.0928 154.739 24.0928V23.7766C153.773 23.7766 152.848 24.0381 151.965 24.5574L152.125 24.83ZM154.739 24.0928C155.343 24.0928 155.924 24.2494 156.483 24.5657L156.639 24.2904C156.034 23.9489 155.401 23.7766 154.739 23.7766V24.0928ZM156.49 24.5695C157.079 24.864 157.466 25.211 157.673 25.6025L157.953 25.4545C157.705 24.9859 157.257 24.5993 156.632 24.2866L156.49 24.5695ZM157.67 25.4612L154.672 31.8364L154.958 31.971L157.956 25.5958L157.67 25.4612ZM159.753 15.5483L159.651 15.4275L159.649 15.4291L159.753 15.5483ZM165.559 15.5483L165.455 15.6676L165.457 15.6692L165.559 15.5483ZM165.559 20.9369L165.457 20.816L165.455 20.8176L165.559 20.9369ZM159.753 20.9369L159.649 21.0561L159.651 21.0577L159.753 20.9369ZM159.108 24.3901V24.232H158.95V24.3901H159.108ZM166.204 24.3901H166.362V24.232H166.204V24.3901ZM166.204 41.8459V42.0041H166.362V41.8459H166.204ZM159.108 41.8459H158.95V42.0041H159.108V41.8459ZM158.735 18.2426C158.735 17.1716 159.11 16.3183 159.857 15.6676L159.649 15.4291C158.828 16.1445 158.419 17.0874 158.419 18.2426H158.735ZM159.855 15.6692C160.634 15.0121 161.571 14.6819 162.675 14.6819V14.3656C161.502 14.3656 160.492 14.7185 159.651 15.4275L159.855 15.6692ZM162.675 14.6819C163.779 14.6819 164.703 15.012 165.455 15.6676L165.663 15.4291C164.847 14.7185 163.848 14.3656 162.675 14.3656V14.6819ZM165.457 15.6692C166.229 16.3205 166.615 17.1734 166.615 18.2426H166.932C166.932 17.0856 166.508 16.1423 165.661 15.4275L165.457 15.6692ZM166.615 18.2426C166.615 19.3119 166.229 20.1647 165.457 20.816L165.661 21.0577C166.508 20.3429 166.932 19.3996 166.932 18.2426H166.615ZM165.455 20.8176C164.703 21.4732 163.779 21.8033 162.675 21.8033V22.1196C163.848 22.1196 164.847 21.7667 165.663 21.0561L165.455 20.8176ZM162.675 21.8033C161.571 21.8033 160.634 21.4731 159.855 20.816L159.651 21.0577C160.492 21.7667 161.502 22.1196 162.675 22.1196V21.8033ZM159.857 20.8176C159.11 20.1669 158.735 19.3137 158.735 18.2426H158.419C158.419 19.3978 158.828 20.3407 159.649 21.0561L159.857 20.8176ZM159.108 24.5482H166.204V24.232H159.108V24.5482ZM166.046 24.3901V41.8459H166.362V24.3901H166.046ZM166.204 41.6878H159.108V42.0041H166.204V41.6878ZM159.266 41.8459V24.3901H158.95V41.8459H159.266ZM167.537 24.3901V24.232H167.379V24.3901H167.537ZM170.763 24.3901V24.5482H170.921V24.3901H170.763ZM170.763 18.3185V18.1604H170.605V18.3185H170.763ZM177.783 18.3185H177.941V18.1604H177.783V18.3185ZM177.783 24.3901H177.625V24.5482H177.783V24.3901ZM181.009 24.3901H181.167V24.232H181.009V24.3901ZM181.009 30.272V30.4301H181.167V30.272H181.009ZM177.783 30.272V30.1138H177.625V30.272H177.783ZM177.783 41.8459V42.0041H177.941V41.8459H177.783ZM170.763 41.8459H170.605V42.0041H170.763V41.8459ZM170.763 30.272H170.921V30.1138H170.763V30.272ZM167.537 30.272H167.379V30.4301H167.537V30.272ZM167.537 24.5482H170.763V24.232H167.537V24.5482ZM170.921 24.3901V18.3185H170.605V24.3901H170.921ZM170.763 18.4766H177.783V18.1604H170.763V18.4766ZM177.625 18.3185V24.3901H177.941V18.3185H177.625ZM177.783 24.5482H181.009V24.232H177.783V24.5482ZM180.851 24.3901V30.272H181.167V24.3901H180.851ZM181.009 30.1138H177.783V30.4301H181.009V30.1138ZM177.625 30.272V41.8459H177.941V30.272H177.625ZM177.783 41.6878H170.763V42.0041H177.783V41.6878ZM170.921 41.8459V30.272H170.605V41.8459H170.921ZM170.763 30.1138H167.537V30.4301H170.763V30.1138ZM167.696 30.272V24.3901H167.379V30.272H167.696ZM180.638 24.3901V24.232H180.48V24.3901H180.638ZM183.864 24.3901V24.5482H184.022V24.3901H183.864ZM183.864 18.3185V18.1604H183.706V18.3185H183.864ZM190.884 18.3185H191.042V18.1604H190.884V18.3185ZM190.884 24.3901H190.726V24.5482H190.884V24.3901ZM194.11 24.3901H194.268V24.232H194.11V24.3901ZM194.11 30.272V30.4301H194.268V30.272H194.11ZM190.884 30.272V30.1138H190.726V30.272H190.884ZM190.884 41.8459V42.0041H191.042V41.8459H190.884ZM183.864 41.8459H183.706V42.0041H183.864V41.8459ZM183.864 30.272H184.022V30.1138H183.864V30.272ZM180.638 30.272H180.48V30.4301H180.638V30.272ZM180.638 24.5482H183.864V24.232H180.638V24.5482ZM184.022 24.3901V18.3185H183.706V24.3901H184.022ZM183.864 18.4766H190.884V18.1604H183.864V18.4766ZM190.726 18.3185V24.3901H191.042V18.3185H190.726ZM190.884 24.5482H194.11V24.232H190.884V24.5482ZM193.951 24.3901V30.272H194.268V24.3901H193.951ZM194.11 30.1138H190.884V30.4301H194.11V30.1138ZM190.726 30.272V41.8459H191.042V30.272H190.726ZM190.884 41.6878H183.864V42.0041H190.884V41.6878ZM184.022 41.8459V30.272H183.706V41.8459H184.022ZM183.864 30.1138H180.638V30.4301H183.864V30.1138ZM180.796 30.272V24.3901H180.48V30.272H180.796ZM207.552 31.9037L207.425 31.9986L207.583 32.2089L207.695 31.971L207.552 31.9037ZM206.679 31.1448L206.601 31.282L206.679 31.1448ZM203.529 31.714L203.639 31.8283L203.641 31.8258L203.529 31.714ZM202.657 41.8459V42.0041H202.815V41.8459H202.657ZM195.447 41.8459H195.289V42.0041H195.447V41.8459ZM195.447 24.3901V24.232H195.289V24.3901H195.447ZM202.657 24.3901H202.815V24.232H202.657V24.3901ZM202.657 26.7049H202.499V27.2208L202.788 26.7935L202.657 26.7049ZM204.782 24.6937L204.861 24.8307L204.862 24.83L204.782 24.6937ZM209.298 24.428L209.22 24.5659L209.227 24.5695L209.298 24.428ZM210.55 25.5285L210.693 25.5958L210.726 25.5243L210.69 25.4545L210.55 25.5285ZM207.678 31.8088C207.437 31.4867 207.129 31.2198 206.758 31.0075L206.601 31.282C206.938 31.4745 207.212 31.7135 207.425 31.9986L207.678 31.8088ZM206.758 31.0075C206.374 30.7885 205.916 30.6831 205.389 30.6831V30.9993C205.874 30.9993 206.275 31.0962 206.601 31.282L206.758 31.0075ZM205.389 30.6831C204.679 30.6831 204.021 30.9985 203.418 31.6022L203.641 31.8258C204.201 31.2657 204.783 30.9993 205.389 30.9993V30.6831ZM203.42 31.5997C202.793 32.1994 202.499 33.1622 202.499 34.4462H202.815C202.815 33.2004 203.102 32.3417 203.639 31.8282L203.42 31.5997ZM202.499 34.4462V41.8459H202.815V34.4462H202.499ZM202.657 41.6878H195.447V42.0041H202.657V41.6878ZM195.605 41.8459V24.3901H195.289V41.8459H195.605ZM195.447 24.5482H202.657V24.232H195.447V24.5482ZM202.499 24.3901V26.7049H202.815V24.3901H202.499ZM202.788 26.7935C203.357 25.9517 204.048 25.2985 204.861 24.8307L204.703 24.5567C203.846 25.0502 203.12 25.7379 202.526 26.6163L202.788 26.7935ZM204.862 24.83C205.699 24.3373 206.57 24.0928 207.476 24.0928V23.7766C206.51 23.7766 205.584 24.0381 204.702 24.5574L204.862 24.83ZM207.476 24.0928C208.08 24.0928 208.66 24.2494 209.22 24.5657L209.375 24.2904C208.771 23.9489 208.137 23.7766 207.476 23.7766V24.0928ZM209.227 24.5695C209.816 24.864 210.203 25.211 210.41 25.6025L210.69 25.4545C210.441 24.9859 209.994 24.5993 209.368 24.2866L209.227 24.5695ZM210.407 25.4612L207.409 31.8364L207.695 31.971L210.693 25.5958L210.407 25.4612Z" fill="#5998A6"/>
</g>
<defs>
<filter id="filter0_ddii" x="10.0316" y="-0.418969" width="255.601" height="58.4785" filterUnits="userSpaceOnUse" color-interpolation-filters="sRGB">
<feFlood flood-opacity="0" result="BackgroundImageFix"/>
<feColorMatrix in="SourceAlpha" type="matrix" values="0 0 0 0 0 0 0 0 0 0 0 0 0 0 0 0 0 0 127 0"/>
<feOffset dx="0.632458" dy="1.26492"/>
<feColorMatrix type="matrix" values="0 0 0 0 0.262153 0 0 0 0 0.563104 0 0 0 0 0.629167 0 0 0 1 0"/>
<feBlend mode="normal" in2="BackgroundImageFix" result="effect1_dropShadow"/>
<feColorMatrix in="SourceAlpha" type="matrix" values="0 0 0 0 0 0 0 0 0 0 0 0 0 0 0 0 0 0 127 0"/>
<feOffset dy="1.58115"/>
<feGaussianBlur stdDeviation="0.316229"/>
<feColorMatrix type="matrix" values="0 0 0 0 0.201771 0 0 0 0 0.545402 0 0 0 0 0.620833 0 0 0 1 0"/>
<feBlend mode="normal" in2="effect1_dropShadow" result="effect2_dropShadow"/>
<feBlend mode="normal" in="SourceGraphic" in2="effect2_dropShadow" result="shape"/>
<feColorMatrix in="SourceAlpha" type="matrix" values="0 0 0 0 0 0 0 0 0 0 0 0 0 0 0 0 0 0 127 0" result="hardAlpha"/>
<feOffset dx="-0.632458" dy="-1.26492"/>
<feGaussianBlur stdDeviation="1.26492"/>
<feComposite in2="hardAlpha" operator="arithmetic" k2="-1" k3="1"/>
<feColorMatrix type="matrix" values="0 0 0 0 0.528281 0 0 0 0 0.740841 0 0 0 0 0.7875 0 0 0 0.69 0"/>
<feBlend mode="normal" in2="shape" result="effect3_innerShadow"/>
<feColorMatrix in="SourceAlpha" type="matrix" values="0 0 0 0 0 0 0 0 0 0 0 0 0 0 0 0 0 0 127 0" result="hardAlpha"/>
<feOffset dy="1.26492"/>
<feGaussianBlur stdDeviation="0.316229"/>
<feComposite in2="hardAlpha" operator="arithmetic" k2="-1" k3="1"/>
<feColorMatrix type="matrix" values="0 0 0 0 0.767361 0 0 0 0 0.893208 0 0 0 0 0.920833 0 0 0 1 0"/>
<feBlend mode="normal" in2="effect3_innerShadow" result="effect4_innerShadow"/>
</filter>
</defs>
</svg>
