<svg width="42" height="35" viewBox="0 0 42 35" fill="none" xmlns="http://www.w3.org/2000/svg">
<path d="M21.3598 14.6897C15.5943 14.6897 7.4198 24.4292 7.4198 30.577C7.4198 33.3459 9.36632 35.0001 12.6284 35.0001C16.1744 35.0001 18.5159 33.0103 21.3598 33.0103C24.2284 33.0103 26.5764 35.0001 30.0912 35.0001C33.3533 35.0001 35.2998 33.3459 35.2998 30.577C35.2998 24.4292 27.1253 14.6897 21.3598 14.6897Z" fill="#212121"/>
<ellipse cx="14.5314" cy="7.32927" rx="4.41055" ry="6.4553" transform="rotate(-13.9625 14.5314 7.32927)" fill="#212121"/>
<ellipse cx="27.2255" cy="7.35088" rx="4.41055" ry="6.4553" transform="rotate(14.4329 27.2255 7.35088)" fill="#212121"/>
<ellipse cx="5.54421" cy="16.1933" rx="4.10609" ry="5.17908" transform="rotate(-18.6107 5.54421 16.1933)" fill="#212121"/>
<ellipse cx="36.0446" cy="16.2568" rx="4.10609" ry="5.17908" transform="rotate(20.3475 36.0446 16.2568)" fill="#212121"/>
</svg>
