<svg width="23" height="30" viewBox="0 0 23 30" fill="none" xmlns="http://www.w3.org/2000/svg">
<path d="M11.2534 10.3125C11.2534 11.0584 10.9571 11.7738 10.4297 12.3012C9.90221 12.8287 9.18684 13.125 8.44092 13.125C7.695 13.125 6.97963 12.8287 6.45218 12.3012C5.92473 11.7738 5.62842 11.0584 5.62842 10.3125C5.62842 9.56658 5.92473 8.85121 6.45218 8.32376C6.97963 7.79632 7.695 7.5 8.44092 7.5C9.18684 7.5 9.90221 7.79632 10.4297 8.32376C10.9571 8.85121 11.2534 9.56658 11.2534 10.3125Z" fill="#5998A6"/>
<path d="M18.75 0H3.75C2.75544 0 1.80161 0.395088 1.09835 1.09835C0.395088 1.80161 0 2.75544 0 3.75V26.25C0 27.2446 0.395088 28.1984 1.09835 28.9016C1.80161 29.6049 2.75544 30 3.75 30H18.75C19.7446 30 20.6984 29.6049 21.4016 28.9016C22.1049 28.1984 22.5 27.2446 22.5 26.25V3.75C22.5 2.75544 22.1049 1.80161 21.4016 1.09835C20.6984 0.395088 19.7446 0 18.75 0V0ZM1.875 3.75C1.875 3.25272 2.07254 2.77581 2.42417 2.42417C2.77581 2.07254 3.25272 1.875 3.75 1.875H18.75C19.2473 1.875 19.7242 2.07254 20.0758 2.42417C20.4275 2.77581 20.625 3.25272 20.625 3.75V18.75L16.7194 14.8444C16.6231 14.7482 16.507 14.6742 16.3793 14.6274C16.2515 14.5807 16.1151 14.5623 15.9795 14.5735C15.8439 14.5847 15.7124 14.6254 15.5941 14.6925C15.4758 14.7597 15.3735 14.8518 15.2944 14.9625L11.25 20.625L7.19062 18.1875C7.01114 18.08 6.80087 18.0357 6.59328 18.0615C6.38568 18.0873 6.19268 18.1818 6.045 18.33L1.875 22.5V3.75Z" fill="#5998A6"/>
</svg>
