<svg width="35" height="35" viewBox="0 0 35 35" fill="none" xmlns="http://www.w3.org/2000/svg">
<rect x="1" y="1" width="33" height="33" rx="6" stroke="#212121" stroke-width="2"/>
<rect x="28.9723" y="16.9166" width="1.16667" height="22.9444" transform="rotate(90 28.9723 16.9166)" fill="#212121"/>
<rect x="28.9723" y="16.9166" width="1.16667" height="22.9444" transform="rotate(90 28.9723 16.9166)" fill="#212121"/>
<rect x="28.9723" y="16.9166" width="1.16667" height="22.9444" transform="rotate(90 28.9723 16.9166)" fill="#212121"/>
<rect x="28.9723" y="16.9166" width="1.16667" height="22.9444" transform="rotate(90 28.9723 16.9166)" stroke="#212121" stroke-width="1.16667"/>
<rect x="17.7504" y="28.5278" width="1.16667" height="22.9444" transform="rotate(-180 17.7504 28.5278)" fill="#212121"/>
<rect x="17.7504" y="28.5278" width="1.16667" height="22.9444" transform="rotate(-180 17.7504 28.5278)" fill="#212121"/>
<rect x="17.7504" y="28.5278" width="1.16667" height="22.9444" transform="rotate(-180 17.7504 28.5278)" fill="#212121"/>
<rect x="17.7504" y="28.5278" width="1.16667" height="22.9444" transform="rotate(-180 17.7504 28.5278)" stroke="#212121" stroke-width="1.16667"/>
</svg>
