<svg width="30" height="31" viewBox="0 0 30 31" fill="none" xmlns="http://www.w3.org/2000/svg">
<path fill-rule="evenodd" clip-rule="evenodd" d="M14.9995 20.8944C13.5528 20.8944 12.1654 20.3268 11.1424 19.3165C10.1195 18.3062 9.5448 16.9359 9.5448 15.5071C9.5448 14.0783 10.1195 12.708 11.1424 11.6977C12.1654 10.6874 13.5528 10.1198 14.9995 10.1198C16.4461 10.1198 17.8335 10.6874 18.8565 11.6977C19.8794 12.708 20.4541 14.0783 20.4541 15.5071C20.4541 16.9359 19.8794 18.3062 18.8565 19.3165C17.8335 20.3268 16.4461 20.8944 14.9995 20.8944ZM14.9995 18.8742C14.0953 18.8742 13.2282 18.5194 12.5888 17.888C11.9495 17.2565 11.5903 16.4001 11.5903 15.5071C11.5903 14.6141 11.9495 13.7577 12.5888 13.1262C13.2282 12.4948 14.0953 12.1401 14.9995 12.1401C15.9036 12.1401 16.7707 12.4948 17.4101 13.1262C18.0494 13.7577 18.4086 14.6141 18.4086 15.5071C18.4086 16.4001 18.0494 17.2565 17.4101 17.888C16.7707 18.5194 15.9036 18.8742 14.9995 18.8742Z" fill="#212121"/>
<path fill-rule="evenodd" clip-rule="evenodd" d="M30 15.5071C30 15.1462 29.9864 14.7879 29.9618 14.4337C29.8868 13.4061 29.1204 12.6222 28.1836 12.3973L26.2063 11.9232C26.0999 11.8963 25.9717 11.802 25.9063 11.6202C25.7841 11.2872 25.6462 10.96 25.4931 10.6397C25.4113 10.4646 25.4331 10.3084 25.4904 10.2155L26.5486 8.4996C27.0504 7.68612 27.0313 6.59789 26.3481 5.81942C25.8736 5.27665 25.3581 4.76889 24.8099 4.29885C24.0203 3.62544 22.9185 3.60524 22.0962 4.10087L20.3575 5.14601C20.2635 5.20257 20.1053 5.22547 19.928 5.14331C19.6048 4.99247 19.2734 4.85644 18.9352 4.73657C18.7511 4.66923 18.6543 4.54397 18.6284 4.43892L18.1484 2.48602C17.9207 1.56075 17.127 0.803837 16.0866 0.729761C15.3629 0.678539 14.6365 0.678539 13.9129 0.729761C12.8724 0.803836 12.0788 1.56075 11.851 2.48602L11.371 4.43892C11.3437 4.54397 11.2483 4.67058 11.0642 4.73522C10.726 4.85644 10.3946 4.99247 10.0701 5.14331C9.89417 5.22412 9.73598 5.20257 9.64189 5.14601L7.90459 4.10087C7.08093 3.60524 5.97909 3.62409 5.1909 4.29885C4.64134 4.76755 4.12724 5.27665 3.65132 5.81807C2.96949 6.59788 2.94904 7.68612 3.45087 8.49826L4.50907 10.2155C4.56634 10.3084 4.58952 10.4646 4.50634 10.6397C4.35361 10.9589 4.21588 11.2862 4.09451 11.6202C4.02633 11.802 3.89951 11.8976 3.79314 11.9232L1.81584 12.3973C0.879001 12.6222 0.112621 13.4061 0.0389837 14.4337C-0.0129916 15.1484 -0.0129916 15.8659 0.0389836 16.5806C0.112621 17.6082 0.879001 18.392 1.81584 18.617L3.79314 19.091C3.89951 19.118 4.0277 19.2123 4.09315 19.3941C4.21588 19.7281 4.35361 20.0554 4.50634 20.3759C4.58816 20.5497 4.56634 20.7059 4.50907 20.7988L3.45087 22.5147C2.94904 23.3282 2.96813 24.4164 3.65132 25.1949C4.12588 25.7376 4.64134 26.2454 5.18953 26.7154C5.97909 27.3888 7.08093 27.409 7.90322 26.9134L9.64189 25.8683C9.73598 25.8117 9.89417 25.7888 10.0714 25.871C10.3946 26.0218 10.726 26.1578 11.0642 26.2777C11.2483 26.3451 11.3451 26.4703 11.371 26.5754L11.851 28.5283C12.0788 29.4535 12.8724 30.2104 13.9129 30.2832C14.6365 30.3345 15.3629 30.3345 16.0866 30.2832C17.127 30.2104 17.9207 29.4535 18.1484 28.5283L18.6284 26.5754C18.6557 26.4703 18.7511 26.3437 18.9352 26.2791C19.2724 26.1583 19.6037 26.0222 19.928 25.871C20.1053 25.7902 20.2635 25.8117 20.3575 25.8683L22.0948 26.9134C22.9185 27.409 24.0203 27.3902 24.8085 26.7154C25.3581 26.2467 25.8722 25.7376 26.3481 25.1962C27.0299 24.4164 27.0504 23.3282 26.5486 22.516L25.4904 20.7988C25.4331 20.7059 25.4099 20.5497 25.4931 20.3746C25.6457 20.0542 25.7831 19.7271 25.9049 19.3941C25.9731 19.2123 26.0999 19.1166 26.2063 19.091L28.1836 18.617C29.1204 18.392 29.8868 17.6082 29.9618 16.5806C29.9875 16.2233 30.0002 15.8653 30 15.5071ZM27.9204 14.5778C27.9653 15.1966 27.9653 15.8177 27.9204 16.4365C27.915 16.5105 27.8522 16.6183 27.7022 16.6546L25.7249 17.1274C24.8685 17.3334 24.2522 17.9705 23.9822 18.7072C23.8812 18.9833 23.7681 19.2527 23.6426 19.5153C23.4629 19.8823 23.378 20.2876 23.3956 20.6949C23.4133 21.1022 23.5328 21.4988 23.7435 21.8493L24.8017 23.5666C24.8835 23.6972 24.8508 23.8171 24.8017 23.8736C24.3899 24.3423 23.9453 24.7814 23.4708 25.1881C23.4135 25.2366 23.2935 25.2689 23.1599 25.1881L21.4226 24.143C21.0675 23.9346 20.6656 23.8165 20.253 23.7991C19.8403 23.7817 19.4297 23.8656 19.058 24.0433C18.7921 24.1672 18.5193 24.279 18.2398 24.3773C17.4939 24.644 16.8488 25.2555 16.6416 26.0986L16.1602 28.0515C16.1247 28.201 16.0156 28.2629 15.9406 28.2683C15.3142 28.3127 14.6853 28.3127 14.0588 28.2683C13.9838 28.2629 13.8747 28.201 13.8379 28.0528L13.3592 26.0999C13.2572 25.7049 13.0578 25.3409 12.7787 25.0406C12.4995 24.7402 12.1494 24.5128 11.7597 24.3787C11.4817 24.2792 11.2087 24.1668 10.9415 24.042C10.5698 23.8647 10.1594 23.7811 9.74697 23.7987C9.33458 23.8164 8.93303 23.9346 8.57823 24.143L6.83957 25.1881C6.70729 25.2689 6.58592 25.2366 6.52865 25.1881C6.0535 24.7822 5.60869 24.3429 5.19772 23.8736C5.14863 23.8171 5.1159 23.6985 5.19772 23.5666L6.25592 21.8493C6.46666 21.4988 6.58618 21.1022 6.60379 20.6949C6.6214 20.2876 6.53655 19.8823 6.35683 19.5153C6.23137 19.2513 6.11852 18.9816 6.01864 18.7072C5.88262 18.3225 5.65229 17.977 5.3482 17.7016C5.04411 17.4261 4.67571 17.2293 4.27588 17.1287L2.29857 16.6533C2.14721 16.6183 2.08448 16.5105 2.07902 16.4365C2.03413 15.8177 2.03413 15.1966 2.07902 14.5778C2.08448 14.5038 2.1472 14.396 2.29721 14.3596L4.27452 13.8869C4.6745 13.7862 5.04299 13.5892 5.3471 13.3135C5.6512 13.0378 5.88145 12.6921 6.01728 12.3071C6.11805 12.0326 6.23182 11.7629 6.35819 11.499C6.53795 11.1317 6.62269 10.7261 6.60484 10.3186C6.587 9.911 6.46711 9.51417 6.25592 9.16359L5.19772 7.44773C5.1159 7.31709 5.14863 7.19722 5.19772 7.14065C5.60871 6.67139 6.05352 6.23207 6.52865 5.82615C6.58592 5.77767 6.70593 5.74534 6.83957 5.82615L8.57823 6.87129C8.93315 7.07943 9.33475 7.19747 9.74715 7.21486C10.1595 7.23226 10.5699 7.14846 10.9415 6.97096C11.2087 6.84663 11.4818 6.73472 11.7597 6.6356C12.149 6.50138 12.4987 6.2741 12.7776 5.97401C13.0565 5.67392 13.2558 5.31035 13.3579 4.9157L13.8392 2.9628C13.8747 2.8133 13.9838 2.75135 14.0588 2.74596C14.6853 2.7016 15.3142 2.7016 15.9406 2.74596C16.0156 2.75135 16.1247 2.8133 16.1616 2.96145L16.6402 4.91435C16.7422 5.30939 16.9417 5.67334 17.2208 5.97369C17.4999 6.27404 17.85 6.50144 18.2398 6.6356C18.5177 6.73473 18.7907 6.84663 19.058 6.97096C19.4297 7.14869 19.8403 7.23262 20.253 7.21523C20.6656 7.19783 21.0675 7.07966 21.4226 6.87129L23.1599 5.82615C23.2921 5.74534 23.4135 5.77767 23.4708 5.82615C23.9453 6.23289 24.3899 6.67196 24.8017 7.14066C24.8508 7.19722 24.8835 7.31574 24.8017 7.44773L23.7435 9.16359C23.5325 9.51429 23.4129 9.91118 23.3953 10.3187C23.3777 10.7263 23.4626 11.1318 23.6426 11.499C23.7685 11.763 23.8818 12.0326 23.9822 12.3071C24.118 12.6917 24.3482 13.037 24.652 13.3125C24.9559 13.5879 25.324 13.7848 25.7236 13.8856L27.7009 14.361C27.8522 14.396 27.915 14.5038 27.9204 14.5778Z" fill="#212121"/>
</svg>
