<svg width="40" height="40" viewBox="0 0 40 40" fill="none" xmlns="http://www.w3.org/2000/svg">
<circle cx="20" cy="20" r="20" fill="#5998A6"/>
<path d="M19.0742 10.633C19.3941 9.789 20.6051 9.789 20.9261 10.633L22.996 16.3669C23.141 16.7469 23.51 16.9999 23.9219 16.9999H29.0087C29.9487 16.9999 30.3587 18.1699 29.6197 18.7429L25.9999 21.9998C25.8377 22.1245 25.7192 22.2973 25.6614 22.4935C25.6035 22.6896 25.6093 22.8991 25.6779 23.0918L26.9998 28.6947C27.3218 29.5947 26.2798 30.3677 25.4919 29.8137L20.5751 26.6937C20.4067 26.5754 20.2059 26.5119 20.0001 26.5119C19.7943 26.5119 19.5935 26.5754 19.4251 26.6937L14.5084 29.8137C13.7214 30.3677 12.6784 29.5937 13.0004 28.6947L14.3224 23.0918C14.3909 22.8991 14.3967 22.6896 14.3389 22.4935C14.281 22.2973 14.1625 22.1245 14.0004 21.9998L10.3805 18.7429C9.64058 18.1699 10.0526 16.9999 10.9905 16.9999H16.0773C16.2776 17.0006 16.4733 16.9404 16.6387 16.8274C16.804 16.7143 16.9312 16.5538 17.0033 16.3669L19.0732 10.633H19.0742Z" stroke="white" stroke-width="1.5" stroke-linecap="round" stroke-linejoin="round"/>
</svg>
