<svg width="119" height="40" viewBox="0 0 119 40" fill="none" xmlns="http://www.w3.org/2000/svg">
<path d="M18.3084 14.5909C13.3666 14.5909 6.35986 22.9391 6.35986 28.2087C6.35986 30.582 8.02831 31.9999 10.8244 31.9999C13.8638 31.9999 15.8708 30.2943 18.3084 30.2943C20.7672 30.2943 22.7798 31.9999 25.7924 31.9999C28.5885 31.9999 30.257 30.582 30.257 28.2087C30.257 22.9391 23.2503 14.5909 18.3084 14.5909Z" fill="#212121"/>
<ellipse cx="12.4555" cy="8.28228" rx="3.78047" ry="5.53311" transform="rotate(-13.9625 12.4555 8.28228)" fill="#212121"/>
<ellipse cx="23.3363" cy="8.30076" rx="3.78047" ry="5.53311" transform="rotate(14.4329 23.3363 8.30076)" fill="#212121"/>
<ellipse cx="4.75218" cy="15.8801" rx="3.5195" ry="4.43921" transform="rotate(-18.6107 4.75218 15.8801)" fill="#212121"/>
<ellipse cx="30.896" cy="15.934" rx="3.5195" ry="4.43921" transform="rotate(20.3475 30.896 15.934)" fill="#212121"/>
<path d="M54.9505 20.2C54.9505 21.3013 55.1932 22.2347 55.6785 23C56.1825 23.7653 56.8452 24.3533 57.6665 24.764C58.4878 25.156 59.3932 25.352 60.3825 25.352C61.7638 25.352 62.9025 25.0907 63.7985 24.568C64.6945 24.0453 65.4598 23.4667 66.0945 22.832V28.6C65.3105 29.16 64.4518 29.6173 63.5185 29.972C62.6038 30.3267 61.4278 30.504 59.9905 30.504C57.8065 30.504 55.8838 30.0747 54.2225 29.216C52.5798 28.3573 51.2918 27.1627 50.3585 25.632C49.4252 24.0827 48.9585 22.272 48.9585 20.2C48.9585 18.128 49.4252 16.3267 50.3585 14.796C51.2918 13.2467 52.5798 12.0427 54.2225 11.184C55.8838 10.3253 57.8065 9.896 59.9905 9.896C61.4278 9.896 62.6038 10.0733 63.5185 10.428C64.4518 10.7827 65.3105 11.24 66.0945 11.8V17.568C65.4598 16.9147 64.6945 16.336 63.7985 15.832C62.9025 15.3093 61.7638 15.048 60.3825 15.048C59.3932 15.048 58.4878 15.2533 57.6665 15.664C56.8452 16.056 56.1825 16.6347 55.6785 17.4C55.1932 18.1653 54.9505 19.0987 54.9505 20.2ZM77.7447 22.104C77.558 21.88 77.334 21.6933 77.0727 21.544C76.8114 21.3947 76.494 21.32 76.1207 21.32C75.5607 21.32 75.0754 21.5533 74.6647 22.02C74.2727 22.468 74.0767 23.1587 74.0767 24.092V30H69.3167V17.12H74.0767V18.772C74.4874 18.156 74.9914 17.6707 75.5887 17.316C76.2047 16.9613 76.8394 16.784 77.4927 16.784C77.9594 16.784 78.4074 16.896 78.8367 17.12C79.2847 17.3253 79.602 17.5867 79.7887 17.904L77.7447 22.104ZM81.0666 12.444C81.0666 11.6787 81.3373 11.072 81.8786 10.624C82.42 10.1573 83.064 9.924 83.8106 9.924C84.576 9.924 85.22 10.1573 85.7426 10.624C86.284 11.072 86.5546 11.6787 86.5546 12.444C86.5546 13.1907 86.284 13.7973 85.7426 14.264C85.22 14.712 84.576 14.936 83.8106 14.936C83.064 14.936 82.42 14.712 81.8786 14.264C81.3373 13.7973 81.0666 13.1907 81.0666 12.444ZM81.4586 17.12H86.1626V30H81.4586V17.12ZM87.9056 17.12H90.2296V12.64H94.8776V17.12H97.1736V21.04H94.8776V30H90.2296V21.04H87.9056V17.12ZM97.4486 17.12H99.7726V12.64H104.421V17.12H106.717V21.04H104.421V30H99.7726V21.04H97.4486V17.12ZM116.792 22.104C116.605 21.88 116.381 21.6933 116.12 21.544C115.858 21.3947 115.541 21.32 115.168 21.32C114.608 21.32 114.122 21.5533 113.712 22.02C113.32 22.468 113.124 23.1587 113.124 24.092V30H108.364V17.12H113.124V18.772C113.534 18.156 114.038 17.6707 114.636 17.316C115.252 16.9613 115.886 16.784 116.54 16.784C117.006 16.784 117.454 16.896 117.884 17.12C118.332 17.3253 118.649 17.5867 118.836 17.904L116.792 22.104Z" fill="black"/>
</svg>
